<svg id="Layer_1" enable-background="new 0 0 512 512" height="512" viewBox="0 0 512 512" width="512" xmlns="http://www.w3.org/2000/svg"><g><g><path d="m106 225.668c-58.449 0-106-47.551-106-106s212-58.449 212 0-47.551 106-106 106z" fill="#ffe4c1"/></g><path d="m106 75.832v149.837c58.449 0 106-47.551 106-106 0-29.225-53-43.837-106-43.837z" fill="#fdd1a3"/><g><path d="m481.758 219h-234.758c-5.772 0-11.033-3.313-13.527-8.519s-1.78-11.381 1.837-15.88l37.69-46.883v-117.476c0-16.676 13.566-30.242 30.242-30.242h178.516c16.676 0 30.242 13.566 30.242 30.242v158.516c0 16.676-13.566 30.242-30.242 30.242z" fill="#4793ff"/></g><path d="m106 13.668c-58.449 0-106 47.551-106 106 0 1.955.057 3.896.162 5.825 9.125 2.551 18.558 3.846 28.169 3.846 30.154 0 58.519-13.057 78.148-35.101 19.63 22.044 47.996 35.101 78.149 35.101 9.263 0 18.367-1.219 27.193-3.593.114-2.012.178-4.037.178-6.077.001-58.449-47.55-106.001-105.999-106.001z" fill="#fdbf00"/><g><path d="m265 512h-234.758c-16.676 0-30.242-13.566-30.242-30.242v-158.516c0-16.676 13.566-30.242 30.242-30.242h178.516c16.676 0 30.242 13.566 30.242 30.242v117.476l37.691 46.883c3.617 4.499 4.331 10.674 1.837 15.88-2.495 5.207-7.755 8.519-13.528 8.519z" fill="#00dd7b"/></g><g><g><path d="m437 94.5h-89c-8.284 0-15-6.716-15-15s6.716-15 15-15h89c8.284 0 15 6.716 15 15s-6.716 15-15 15z" fill="#f6efea"/></g><g><path d="m437 154.5h-89c-8.284 0-15-6.716-15-15s6.716-15 15-15h89c8.284 0 15 6.716 15 15s-6.716 15-15 15z" fill="#f6efea"/></g></g><g><g><path d="m164 387.5h-89c-8.284 0-15-6.716-15-15s6.716-15 15-15h89c8.284 0 15 6.716 15 15s-6.716 15-15 15z" fill="#fff4f4"/></g><g><path d="m164 447.5h-89c-8.284 0-15-6.716-15-15s6.716-15 15-15h89c8.284 0 15 6.716 15 15s-6.716 15-15 15z" fill="#fff4f4"/></g></g><g><path d="m386.451 494c-54.286 0-98.451-44.165-98.451-98.451v-19.549c0-8.284 6.716-15 15-15l166.902-6c8.284 0 15 6.716 15 15v25.549c0 54.286-44.165 98.451-98.451 98.451z" fill="#ffe4c1"/></g><path d="m469.902 355-83.471 3.001v135.999h.02c54.286 0 98.451-44.165 98.451-98.451v-25.549c0-8.284-6.716-15-15-15z" fill="#fdd1a3"/><path d="m497 295h-128.76c-21.707 0-41.975 8.472-57.069 23.854-14.725 15.007-22.914 34.938-23.15 56.21l-.017 15.957 144.991-.016h.001c21.832 0 41.978-8.53 56.723-24.018 14.368-15.09 22.281-35.328 22.281-56.987 0-8.284-6.716-15-15-15z" fill="#392e6e"/><path d="m106 13.668v81.094c.159-.176.322-.347.479-.524 19.63 22.044 47.996 35.101 78.149 35.101 9.263 0 18.367-1.219 27.193-3.593.114-2.012.178-4.037.178-6.077.001-58.449-47.55-106.001-105.999-106.001z" fill="#ff8856"/><path d="m497 295h-110.569v96.01l46.566-.005h.001c21.832 0 41.978-8.53 56.723-24.018 14.366-15.09 22.279-35.328 22.279-56.987 0-8.284-6.716-15-15-15z" fill="#2b2256"/></g></svg>