<svg id="Layer_1" enable-background="new 0 0 512 512" height="512" viewBox="0 0 512 512" width="512" xmlns="http://www.w3.org/2000/svg"><g><path d="m491 144.17c0 32.61-17.62 64.31-49.73 89.61v221.02c0 31.54-25.67 57.2-57.22 57.2h-256.1c-31.55 0-57.22-25.66-57.22-57.2v-221.02c-32.11-25.3-49.73-57-49.73-89.61 0-39.11 25.24-75.72 71.06-103.08 40.75-24.33 93.17-38.62 148.94-40.79 4.98-.2 9.98-.3 15-.3 61.33 0 119.55 14.59 163.94 41.09 45.82 27.36 71.06 63.97 71.06 103.08z" fill="#f79e60"/><path d="m491 144.17c0 32.61-17.62 64.31-49.73 89.61v221.02c0 31.54-25.67 57.2-57.22 57.2h-256.1c-31.55 0-57.22-25.66-57.22-57.2v-30c0 31.54 25.67 57.2 57.22 57.2h226.1c31.55 0 57.22-25.66 57.22-57.2v-211.02l49.73-69.61c0-39.11-25.24-75.72-71.06-103.08-40.75-24.33-93.17-38.62-148.94-40.79 4.98-.2 9.98-.3 15-.3 61.33 0 119.55 14.59 163.94 41.09 45.82 27.36 71.06 63.97 71.06 103.08z" fill="#d77d41"/><path d="m461 144.17c0 8.48-1.77 19.11-7.75 30.8-5.99 11.69-16.18 24.45-33.03 37.17-5.6 4.22-8.95 10.94-8.95 17.95v224.71c0 15-12.21 27.2-27.22 27.2h-256.1c-15.01 0-27.22-12.2-27.22-27.2v-224.71c0-7.01-3.35-13.73-8.95-17.95-33.7-25.45-40.78-51.01-40.78-67.97 0-27.72 20.57-55.9 56.44-77.32 35.67-21.29 83.66-34.33 133.56-36.52 4.99-.22 9.99-.33 15-.33 55.19 0 109.33 13.43 148.56 36.85 35.87 21.42 56.44 49.6 56.44 77.32z" fill="#ffe8c8"/><path d="m461 144.17c0 8.48-1.77 19.11-7.75 30.8-5.99 11.69-16.18 24.45-33.03 37.17-5.6 4.22-8.95 10.94-8.95 17.95v224.71c0 15-12.21 27.2-27.22 27.2h-256.1c-15.01 0-27.22-12.2-27.22-27.2v-30c0 15 12.21 27.2 27.22 27.2h226.1c15.01 0 27.22-12.2 27.22-27.2v-194.71c0-7.01 3.35-13.73 8.95-17.95 16.85-12.72 27.04-25.48 33.03-37.17 5.98-11.69 7.75-22.32 7.75-30.8 0-27.72-20.57-55.9-56.44-77.32-35.67-21.29-83.66-34.33-133.56-36.52 4.99-.22 9.99-.33 15-.33 55.19 0 109.33 13.43 148.56 36.85 35.87 21.42 56.44 49.6 56.44 77.32z" fill="#fdd9b4"/><g fill="#f2c397"><path d="m350.492 222.547-199.59 199.59c-2.929 2.93-2.929 7.678 0 10.607 1.464 1.464 3.384 2.196 5.303 2.196s3.839-.732 5.303-2.196l199.59-199.59c2.929-2.93 2.929-7.678 0-10.607-2.929-2.928-7.678-2.928-10.606 0z"/><path d="m152.884 376.558c1.464 1.464 3.384 2.196 5.303 2.196s3.839-.732 5.303-2.196l141.421-141.421c2.929-2.93 2.929-7.678 0-10.607-2.929-2.928-7.678-2.928-10.606 0l-141.421 141.42c-2.929 2.93-2.929 7.678 0 10.608z"/><path d="m159.955 312.918c1.464 1.464 3.384 2.196 5.303 2.196s3.839-.732 5.303-2.196l70.71-70.71c2.929-2.93 2.929-7.678 0-10.607-2.928-2.928-7.677-2.928-10.606 0l-70.71 70.71c-2.929 2.929-2.929 7.677 0 10.607z"/><path d="m348.51 278.733-141.422 141.421c-2.929 2.93-2.929 7.678 0 10.607 1.464 1.464 3.384 2.196 5.303 2.196s3.839-.732 5.303-2.196l141.421-141.421c2.929-2.93 2.929-7.678 0-10.607-2.927-2.927-7.677-2.927-10.605 0z"/><path d="m341.438 342.373-70.71 70.711c-2.929 2.93-2.929 7.678 0 10.607 1.464 1.464 3.384 2.196 5.303 2.196s3.839-.732 5.303-2.196l70.71-70.711c2.929-2.93 2.929-7.678 0-10.607-2.928-2.928-7.677-2.928-10.606 0z"/><circle cx="211.354" cy="169.069" r="7.504"/><circle cx="128.191" cy="148.076" r="7.504"/><circle cx="157.191" cy="106.076" r="7.504"/><circle cx="333.821" cy="120.516" r="7.504"/><circle cx="377.9" cy="150.816" r="7.504"/></g></g></svg>