<svg xmlns="http://www.w3.org/2000/svg" viewBox="0 0 587.697 587.697"><path d="M526.9 557.298c0 16.79-13.608 30.398-30.398 30.398H91.194c-16.79 0-30.398-13.608-30.398-30.398v-526.9C60.796 13.608 74.404 0 91.194 0h405.308c16.79 0 30.398 13.608 30.398 30.398v526.9z" fill="#87ced9"/><path d="M496.502 587.697H30.398C13.608 587.697 0 574.088 0 557.298V526.9h466.104v30.398c0 16.79 13.608 30.399 30.398 30.399z" fill="#4398d1"/><path fill="#fda72f" d="M0 162.123h202.654v121.592H0z"/><path d="M53.632 243.418l-20.265-20.265c-3.952-3.952-3.952-10.376 0-14.328l20.265-20.265 14.328 14.328-13.102 13.102 13.102 13.1-14.328 14.328zM149.022 243.418l-14.328-14.328 13.102-13.102-13.102-13.102 14.328-14.328 20.265 20.265c3.952 3.952 3.952 10.376 0 14.328l-20.265 20.267zM81.565 243.186l20.277-60.793 19.223 6.411-20.277 60.794z" fill="#ff8a3d"/><path fill="#4398d1" d="M243.185 60.796h344.512V263.45H243.185z"/><path fill="#3269a1" d="M587.697 222.919l-70.929-40.53-78.245 40.53-94.011-60.796-101.327 60.796v40.531h344.512z"/><circle cx="471.171" cy="126.659" r="25.332" fill="#e34b87"/><path fill="#e34b87" d="M101.327 324.246h253.317v121.592H101.327z"/><path fill="#bf3d75" d="M131.725 354.644h40.531v20.265h-40.531zM192.521 354.644h91.194v20.265h-91.194zM303.981 354.644h20.265v20.265h-20.265zM131.725 395.175h121.592v20.265H131.725zM273.583 395.175h50.663v20.265h-50.663z"/><path fill="#5eb3d1" d="M91.194 30.398h20.265v20.265H91.194zM131.725 30.398h20.265v20.265h-20.265zM172.256 30.398h20.265v20.265h-20.265zM91.194 70.929h121.592v20.265H91.194z"/><path fill="#e34b87" d="M395.175 364.777h192.521v121.592H395.175z"/><path fill="#bf3d75" d="M425.573 395.175h20.265v20.265h-20.265zM425.573 435.706h20.265v20.265h-20.265zM466.104 395.175h91.194v20.265h-91.194zM466.104 435.706h91.194v20.265h-91.194z"/><path fill="#71c4d1" d="M263.45 263.45H526.9v20.265H263.45zM415.441 486.37h111.46v20.265h-111.46zM202.654 182.389v101.327H60.796v20.265h162.123V182.389zM354.644 344.512v101.327H121.592v20.265H374.91V344.512z"/></svg>