<svg xmlns="http://www.w3.org/2000/svg" viewBox="0 0 469 469">
  <defs/>
  <path fill="#f0eaf9" d="M43 0h384c23 0 42 19 42 43v341c0 24-19 43-42 43H43c-24 0-43-19-43-43V43C0 19 19 0 43 0z"/>
  <path fill="#e1d5f3" d="M21 85h427c12 0 21 10 21 22 0 11-9 21-21 21H21c-11 0-21-10-21-21 0-12 10-22 21-22z"/>
  <path fill="#5628b4" d="M43 0h384c23 0 42 19 42 43v64H0V43C0 19 19 0 43 0z"/>
  <path fill="#6f48bf" d="M43 0h384c11 0 21 10 21 21 0 12-10 22-21 22H43c-12 0-22-10-22-22C21 10 31 0 43 0z"/>
  <path fill="#421198" d="M32 85h405c6 0 11 5 11 11s-5 11-11 11H32c-6 0-11-5-11-11s5-11 11-11z"/>
  <path fill="#d9c9ef" d="M459 149c-6 0-11 5-11 11v224c0 12-10 21-21 21H309a11 11 0 000 22h118c23 0 42-19 42-43V160c0-6-4-11-10-11z"/>
  <path fill="#dfd2f2" d="M11 192c6 0 10 5 10 11v170c0 6-4 11-10 11s-11-5-11-11V203c0-6 5-11 11-11z"/>
  <circle cx="53.3" cy="53.3" r="10.7" fill="#f7b236"/>
  <circle cx="96" cy="53.3" r="10.7" fill="#b39ddd"/>
  <circle cx="138.7" cy="53.3" r="10.7" fill="#d80e70"/>
  <g fill="#b39ddd">
    <path d="M405 299H192c-12 0-21-10-21-22V171c0-12 9-22 21-22h213c12 0 22 10 22 22v106c0 12-10 22-22 22zM107 235H64c-12 0-21-10-21-22v-42c0-12 9-22 21-22h43c11 0 21 10 21 22v42c0 12-10 22-21 22zM107 384H64c-12 0-21-10-21-21v-43c0-12 9-21 21-21h43c11 0 21 9 21 21v43c0 11-10 21-21 21zM181 320h64c6 0 11 5 11 11s-5 10-11 10h-64c-6 0-10-4-10-10s4-11 10-11zM395 320h21c6 0 11 5 11 11s-5 10-11 10h-21c-6 0-11-4-11-10s5-11 11-11zM288 320h64c6 0 11 5 11 11s-5 10-11 10h-64c-6 0-11-4-11-10s5-11 11-11zM181 363h86c6 0 10 4 10 10s-4 11-10 11h-86c-6 0-10-5-10-11s4-10 10-10zM309 363h22c6 0 10 4 10 10s-4 11-10 11h-22c-6 0-10-5-10-11s4-10 10-10zM117 277H53c-6 0-10-4-10-10s4-11 10-11h64c6 0 11 5 11 11s-5 10-11 10z"/>
  </g>
  <path fill="#f7b236" d="M235 320h-22c-59 0-106 48-106 107 0 12-11 21-22 21H75a11 11 0 000 21h74c59 0 107-47 107-106v-43h-21z"/>
  <path fill="#f58b04" d="M256 363v-43h-21c0 59-48 107-107 107h-21c0 12-11 21-22 21H75a11 11 0 000 21h74c59 0 107-47 107-106z"/>
  <path fill="#d80e70" d="M462 114c-6-7-16-9-25-6-75 26-137 81-173 153l-8 16v43h43l16-8c72-36 127-98 153-173 3-9 1-19-6-25z"/>
  <ellipse cx="341.3" cy="213.3" fill="#e976af" rx="21.3" ry="56.8" transform="rotate(-135 341 213)"/>
  <path fill="#a60068" d="M437 108l-11 4c-2 96-75 175-170 186v22h43l16-8c72-36 127-98 153-173a24 24 0 00-31-31z"/>
  <path fill="#5628b4" d="M235 320l21 21 43-21-43-43-21 43z"/>
  <path fill="#420f9b" d="M246 332l10 9 43-21-21-20a23 23 0 00-36 5c-4 9-3 20 4 27z"/>
  <ellipse cx="160.6" cy="373.7" fill="#fbda9e" rx="16.6" ry="42.4" transform="rotate(-135 161 374)"/>
</svg>