<svg xmlns="http://www.w3.org/2000/svg" viewBox="0 0 140 18">
                <defs>
                  <linearGradient
                    x1="99.6882%"
                    y1="15.8165%"
                    x2="39.846%"
                    y2="97.4397%"
                    id="a"
                  >
                    <stop stopColor="#0052CC" offset="0%" />
                    <stop stopColor="#2684FF" offset="92%" />
                  </linearGradient>
                </defs>
                <g fillRule="nonzero" fill="none">
                  <path
                    d="M5.0809 8.3541a.4815.4815 0 00-.4395-.1927c-.1694.019-.3167.1272-.3884.2854L.0543 17.0365a.5239.5239 0 00.022.5006.4994.4994 0 00.4282.2432H6.351c.1916.0052.3682-.106.4501-.2832 1.2573-2.6736.4941-6.7236-1.7203-9.143z"
                    fill="url(#a)"
                  />
                  <path
                    d="M8.162.5294c-2.1365 3.3514-2.3872 7.6073-.6597 11.197l2.8328 5.7707c.0854.1741.2597.2838.4501.2832h5.8466a.4997.4997 0 00.4226-.2465.524.524 0 00.0198-.4973L9.0157.5295C8.937.3613 8.771.2544 8.589.2544c-.1822 0-.3481.1069-.4269.275z"
                    fill="#2684FF"
                  />
                  <path
                    d="M76.7409 7.4276c0 2.1177.965 3.8171 4.7368 4.561 2.2507.4817 2.7215.855 2.7215 1.6226 0 .7676-.4708 1.2282-2.0696 1.2282-1.9163-.0354-3.7943-.5556-5.4663-1.5141v3.4676C77.799 17.3621 79.2994 18 82.096 18c3.9451 0 5.5103-1.7974 5.5103-4.4735m0 0c0-2.5227-1.3065-3.706-4.9955-4.5186-2.036-.4605-2.5301-.9211-2.5301-1.5882 0-.8338.7295-1.1832 2.0696-1.1832 1.6298 0 3.2363.5056 4.76 1.207V4.1374a10.5488 10.5488 0 00-4.6565-.9874c-3.6451 0-5.531 1.6226-5.531 4.2776M127.415 3.3697v14.4106h3.001V6.7923l1.265 2.9171 4.2453 8.0709h3.7719V3.3697h-3.001v9.3018l-1.1356-2.7-3.4097-6.6018zM105.0479 3.3697h3.2803v14.4106h-3.2803zM101.263 13.5265c0-2.5227-1.3064-3.706-4.9954-4.5186-2.036-.4605-2.5301-.9211-2.5301-1.5882 0-.8338.7295-1.1832 2.0696-1.1832 1.6298 0 3.2363.5056 4.76 1.207V4.1374a10.5488 10.5488 0 00-4.6565-.9874c-3.6451 0-5.531 1.6226-5.531 4.2776 0 2.1177.9649 3.8171 4.7368 4.561 2.2506.4817 2.7215.855 2.7215 1.6226 0 .7676-.4709 1.2282-2.0696 1.2282-1.9163-.0354-3.7943-.5556-5.4664-1.5141v3.4676C91.4376 17.3621 92.9381 18 95.7346 18c3.9452 0 5.5104-1.7974 5.5104-4.4735M51.264 3.3697v14.4106h6.7418l1.0607-3.113H54.565V3.3698zM37.9436 3.3697v3.1156h3.645v11.295h3.301V6.4853h3.9013V3.3697zM33.1576 3.3697h-4.3254l-4.9154 14.4106h3.7641l.6882-2.4274a9.1106 9.1106 0 005.262 0l.6958 2.4274h3.7512L33.1576 3.3697zm-2.1627 9.3865a6.2704 6.2704 0 01-1.811-.2647l1.811-6.292 1.8109 6.292a6.2704 6.2704 0 01-1.811.2647zM69.6266 3.3697h-4.3255l-4.9153 14.4106h3.7512l.701-2.4274a9.1106 9.1106 0 005.2517 0l.6959 2.4274h3.7511l-4.91-14.4106zm-2.1627 9.3865a6.2704 6.2704 0 01-1.811-.2647l1.811-6.292 1.8109 6.292a6.2704 6.2704 0 01-1.811.2647zM120.1456 3.3697h-4.3255l-4.9153 14.4106h3.7512l.701-2.4274a9.1106 9.1106 0 005.2517 0l.6959 2.4274h3.7511l-4.91-14.4106zm-2.1627 9.3865a6.2704 6.2704 0 01-1.811-.2647l1.811-6.292 1.8109 6.292a6.2704 6.2704 0 01-1.811.2647z"
                    fill="#0052CC"
                  />
                </g>
              </svg>