<svg xmlns="http://www.w3.org/2000/svg"><g clip-rule="evenodd" fill-rule="evenodd"><path d="m74.701 347.131 298.734-305.605v-38.526c0-1.657-1.343-3-3-3h-341.122c-1.657 0-3 1.343-3 3v341.131c0 1.657 1.343 3 3 3z" fill="#ffc243"/><path d="m355.739 388.687h66.113v-185.641-158.52c0-1.657-1.343-3-3-3h-45.417-295.734c-1.657 0-3 1.343-3 3v302.605 41.555h281.038z" fill="#60b6ff"/><path d="m186.748 362.55c-7.914-7.593-20.616-7.359-28.267.526l-.029.029-.029.058-7.943 8.294-1.694 1.752c-14.046 14.63-23.099 5.928-57.411.759-3.358-.496-6.804-.672-10.191-.526-12.674.642-25.172 5.928-34.633 15.886-19.594 20.559-18.894 53.003 1.548 72.598s52.884 18.894 72.596-1.548l42.868-44.68 24.091-25.114c7.329-8.001 6.949-20.499-.906-28.034zm-118.705 47.367c8.235-8.615 21.901-8.907 30.516-.672s8.907 21.902.672 30.517-21.901 8.907-30.516.672c-8.615-8.236-8.937-21.902-.672-30.517z" fill="#ec5469"/><path d="m158.422 363.164.029-.058c0 .028-.029.028-.029.058zm.059-.088 24.033-25.056-20.996-72.51-25.61-87.637c-1.635-5.578-2.249-6.541-4.994-2.278-26.807 41.614-18.397 65.385-7.3 103.552l26.866 92.309 7.943-8.294.029-.058z" fill="#f9f7f8"/><path d="m158.481 363.076c7.651-7.885 20.354-8.118 28.267-.526 7.855 7.534 8.235 20.033.905 28.035l7.359-7.68 2.511-2.628 57.469-59.953c34.429-35.948 52.884-53.12 48.358-102.443-.467-5.023-1.46-4.497-5.49-.263l-115.346 120.402z" fill="#f9f7f8"/><path d="m187.361 390.906-6.687 6.95-17.112 17.843 17.287 59.34c7.914 27.188 36.356 42.811 63.543 34.897s42.81-36.357 34.955-63.632c-4.818-16.762-17.375-29.115-32.648-34.371-32.794-11.272-46.022-9.52-51.687-29.027zm26.223 53.528c8.235-8.615 21.901-8.936 30.516-.701 8.615 8.264 8.907 21.931.672 30.546s-21.901 8.907-30.516.672-8.936-21.902-.672-30.517z" fill="#ec5469"/><path d="m182.397 372.625-7.33 7.651-24.092 25.114-42.897 44.71c-16.791 17.405-42.839 20.5-62.813 8.907.905.993 1.84 1.986 2.833 2.92 20.441 19.595 52.884 18.894 72.596-1.548l42.868-44.68 24.091-25.114c6.454-7.038 6.921-17.551 1.606-25.114l-4.322 4.497z" fill="#e5374e"/><path d="m189.259 365.471c5.315 7.563 4.848 18.076-1.606 25.114l7.359-7.68 2.511-2.628 57.469-59.953c34.429-35.948 52.884-53.12 48.358-102.443-.467-5.023-1.46-4.497-5.49-.263l-6.454 6.746c-.905 37.029-18.777 54.112-49.03 85.651z" fill="#e5e1e5"/><path d="m256.832 438.681c7.855 27.275-7.768 55.719-34.955 63.632-6.395 1.84-12.82 2.424-19.069 1.84 11.973 7.505 26.953 10.046 41.583 5.782 27.187-7.914 42.81-36.357 34.955-63.632-4.818-16.762-17.375-29.115-32.648-34.371-6.337-2.161-11.944-3.855-16.908-5.315 12.704 6.103 22.837 17.405 27.042 32.064z" fill="#e5374e"/><path d="m143.588 262.853 20.967 72.481-18.864 19.683 4.789 16.441c10.659-11.155 21.347-22.311 32.034-33.437l-20.996-72.51-25.61-87.637c-1.635-5.578-2.249-6.541-4.994-2.278-3.358 5.227-6.162 10.162-8.498 14.864z" fill="#e5e1e5"/><path d="m373.435 41.526h-71.048c8.936 15.419 16.587 31.977 22.748 49.44 11.564 32.736 17.93 68.743 17.93 106.502 0 74.321-24.763 141.779-64.974 191.219h77.648v-38.693c0-3.855 3.154-7.009 7.009-7.009h6.541l11.622-31.13c2.249-6.016 7.446-9.403 13.842-9.403h6.892l14.835-91.667c.555-3.767 2.687-6.366 5.373-7.739v-158.52c0-1.657-1.343-3-3-3z" fill="#23a6fe"/><path d="m350.044 460.058v45.206c0 3.68 3.008 6.687 6.687 6.687h122.269c3.679 0 6.687-3.008 6.687-6.687v-45.206z" fill="#ffc243"/><path d="m350.044 402.558h135.642v-59.31c0-3.709-3.008-6.717-6.687-6.717h-6.249-56.768-53.001-6.249c-3.679 0-6.687 3.008-6.687 6.717v37.029 22.281z" fill="#ffc243"/><path d="m362.981 336.531h53.001 56.768l-11.126-29.757c-2.161-5.753-7.125-8.994-13.258-8.994h-6.57-25.814-22.047-6.57c-6.132 0-11.097 3.241-13.258 8.994z" fill="#ec5469"/><path d="m455.463 336.531h.088c-.03 0-.059 0-.088 0zm-17.375-29.758 11.126 29.757h6.249.088 17.2l-11.126-29.757c-2.161-5.753-7.125-8.994-13.258-8.994h-6.57-16.937c6.132 0 11.096 3.241 13.228 8.994z" fill="#e5374e"/><path d="m462.179 343.247v59.31h23.507v-59.31c0-3.709-3.008-6.717-6.687-6.717h-6.249-17.2c3.651.03 6.629 3.038 6.629 6.717z" fill="#fea610"/><path d="m485.687 460.058h-23.507v45.206c0 3.68-3.008 6.687-6.716 6.687h23.536c3.679 0 6.687-3.008 6.687-6.687z" fill="#fea610"/><path d="m408.156 210.084-14.221 87.695h22.047 8.877 16.937l-14.221-87.695c-1.518-7.797-9.023-10.075-14.28-7.417-2.569 1.313-4.613 3.825-5.139 7.417z" fill="#f9f7f8"/><path d="m350.044 402.558h135.642v57.5h-135.642z" fill="#f9f7f8"/><g fill="#e5e1e5"><path d="m462.179 402.558h23.507v57.5h-23.507z"/><path d="m424.859 297.779h.088c-.029 0-.058 0-.088 0zm-11.242-69.298 8.235 50.754 3.008 18.544h.088 16.849l-14.221-87.695c-.759-3.884-3.008-6.425-5.724-7.622-2.716-1.227-5.928-1.11-8.556.204-1.606.818-3.008 2.103-3.971 3.826.613 1.022 1.051 2.219 1.314 3.592z"/></g></g></svg>