<svg id="Flat" height="512" viewBox="0 0 512 512" width="512" xmlns="http://www.w3.org/2000/svg"><g><g><path d="m24 464v-320l104-40 128 40 128-64 104 48v328l-104-40-128 48-128-48z" fill="#fac850"/><path d="m384 80-64 32v232l-72-48h-24v-32h-64v32h-136v64h104v56l64 24v-80h32l64 40v52l96-36 104 40v-72l-104-32v-64h104v-64h-104z" fill="#fa7d29"/><ellipse cx="176" cy="224" fill="#fffdf8" rx="56" ry="24"/></g><path d="m246.1 118.1a70.1 70.1 0 0 0 -140.19 0c-.005 52.567 70.09 113.9 70.09 113.9s70.1-61.333 70.1-113.9z" fill="#fa7d29"/><circle cx="176" cy="118.095" fill="#fffefd" r="26.286"/></g></svg>