<svg xmlns="http://www.w3.org/2000/svg" viewBox="0 0 504.123 504.123"><circle cx="252.062" cy="252.062" r="252.062" fill="#fbbd5e"/><g fill="#183651"><path d="M341.071 195.348h15.754v15.754h-15.754zM389.12 195.348h15.754v15.754H389.12zM436.382 195.348h15.754v15.754h-15.754zM51.988 293.022h15.754v15.754H51.988zM99.249 293.022h15.754v15.754H99.249zM147.298 293.022h15.754v15.754h-15.754zM146.511 65.378l-11.028-11.027 14.179-14.966-14.179-14.967 11.028-11.027 25.994 25.994z"/><path d="M111.852 31.508h48.837v15.754h-48.837z"/></g><path fill="#4fbf9f" d="M200.074 432.443h103.975v63.803H200.074z"/><path d="M304.049 504.123H200.074c-4.726 0-7.877-3.151-7.877-7.877v-63.803c0-4.726 3.151-7.877 7.877-7.877h103.975c4.726 0 7.877 3.151 7.877 7.877v63.803c0 4.726-3.151 7.877-7.877 7.877zm-96.098-15.754h88.222V440.32h-88.222v48.049z" fill="#183651"/><path fill="#e0e4e8" d="M200.074 326.105h103.975v63.803H200.074z"/><path d="M304.049 397.785H200.074c-4.726 0-7.877-3.151-7.877-7.877v-63.803c0-4.726 3.151-7.877 7.877-7.877h103.975c4.726 0 7.877 3.151 7.877 7.877v63.803c0 4.726-3.151 7.877-7.877 7.877zm-96.098-15.754h88.222v-48.049h-88.222v48.049z" fill="#183651"/><path fill="#4fbf9f" d="M200.074 220.554h103.975v63.803H200.074z"/><path d="M304.049 291.446H200.074c-4.726 0-7.877-3.151-7.877-7.877v-63.803c0-4.726 3.151-7.877 7.877-7.877h103.975c4.726 0 7.877 3.151 7.877 7.877v63.803c0 4.726-3.151 7.877-7.877 7.877zm-96.098-15.754h88.222v-48.049h-88.222v48.049z" fill="#183651"/><path fill="#e0e4e8" d="M200.074 114.215h103.975v63.803H200.074z"/><path d="M304.049 185.895H200.074c-4.726 0-7.877-3.151-7.877-7.877v-63.803c0-4.726 3.151-7.877 7.877-7.877h103.975c4.726 0 7.877 3.151 7.877 7.877v63.803c0 3.939-3.151 7.877-7.877 7.877zm-96.098-15.753h88.222v-48.049h-88.222v48.049z" fill="#183651"/><path fill="#4fbf9f" d="M200.074 7.877h103.975V71.68H200.074z"/><g fill="#183651"><path d="M304.049 79.557H200.074c-4.726 0-7.877-3.151-7.877-7.877V7.877c0-4.726 3.151-7.877 7.877-7.877h103.975c4.726 0 7.877 3.151 7.877 7.877V71.68c0 3.938-3.151 7.877-7.877 7.877zm-96.098-15.754h88.222V15.754h-88.222v48.049zM338.708 487.582l-11.028-11.028 14.178-14.179-14.178-14.966 11.028-11.027 25.206 25.993z"/><path d="M304.049 454.498h48.837v15.754h-48.837zM152.812 484.431l-11.815-11.028 14.966-14.966-14.966-14.966 11.815-11.028 25.206 25.994z"/><path d="M166.203 466.314h-102.4c-32.295 0-58.289-25.994-58.289-58.289s26.782-57.502 59.077-57.502h135.483v15.754H64.591c-23.631 0-42.535 18.905-42.535 42.535s18.905 42.535 42.535 42.535h102.4v14.966h-.788zM152.812 271.754l-11.815-11.028 14.966-14.178-14.966-14.966 11.815-11.028 25.206 25.994z"/><path d="M166.203 254.425h-102.4c-32.295 0-58.289-25.994-58.289-58.289s26.782-58.289 59.077-58.289h135.483V153.6H64.591c-23.631 0-42.535 18.905-42.535 42.535s18.905 42.535 42.535 42.535h102.4v15.754h-.788zM351.311 382.031l-25.206-25.994 25.206-25.206 11.815 11.027-14.966 14.179 14.966 14.966z"/><path d="M439.532 363.914h-102.4V348.16h102.4c23.631 0 42.535-18.905 42.535-42.535v-3.938c0-23.631-18.905-42.535-42.535-42.535H304.049v-15.754h135.483c32.295 0 58.289 25.994 58.289 58.289v3.938c.001 32.295-25.993 58.289-58.289 58.289zM351.311 170.142l-25.206-25.994 25.206-25.994 11.815 11.028-14.966 14.966 14.966 14.966z"/><path d="M439.532 152.025h-102.4v-15.754h102.4c23.631 0 42.535-18.905 42.535-42.535v-3.938c0-23.631-18.905-42.535-42.535-42.535H304.049V31.508h135.483c32.295 0 58.289 25.994 58.289 58.289v3.938c.001 32.296-25.993 58.29-58.289 58.29z"/></g><path fill="#f06151" d="M392.271 432.443h103.975v63.803H392.271z"/><path d="M496.246 504.123H392.271c-4.726 0-7.877-3.151-7.877-7.877v-63.803c0-4.726 3.151-7.877 7.877-7.877h103.975c4.726 0 7.877 3.151 7.877 7.877v63.803c0 4.726-3.151 7.877-7.877 7.877zm-96.098-15.754h88.222V440.32h-88.222v48.049z" fill="#183651"/><path fill="#f06151" d="M7.877 7.877h103.975V71.68H7.877z"/><path d="M111.852 79.557H7.877C3.151 79.557 0 76.406 0 71.68V7.877C0 3.151 3.151 0 7.877 0h103.975c4.726 0 7.877 3.151 7.877 7.877V71.68c0 3.938-3.151 7.877-7.877 7.877zM15.754 63.803h88.222V15.754H15.754v48.049z" fill="#183651"/></svg>