<svg xmlns="http://www.w3.org/2000/svg" viewBox="0 0 512 512"><g fill="#424c59"><path d="M189.849 0c-13.85 0-25.078 11.227-25.078 25.078v461.845c0 13.85 11.227 25.078 25.078 25.078 13.85 0 25.078-11.227 25.078-25.078V25.078C214.927 11.227 203.699 0 189.849 0zM329.34 0c-13.85 0-25.078 11.227-25.078 25.078v172.689c0 13.85 11.227 25.078 25.078 25.078 13.85 0 25.078-11.227 25.078-25.078V25.078C354.417 11.227 343.19 0 329.34 0zM51.297 0c-13.85 0-25.078 11.227-25.078 25.078v461.845c0 13.85 11.227 25.078 25.078 25.078 13.85 0 25.078-11.227 25.078-25.078V25.078C76.373 11.227 65.146 0 51.297 0z"/></g><g fill="#d8a32e"><circle cx="329.508" cy="197.977" r="50.552"/><circle cx="189.272" cy="108.116" r="50.552"/><circle cx="51.388" cy="366.038" r="50.552"/></g><g fill="#fcc63f"><circle cx="51.388" cy="366.038" r="35.746"/><circle cx="189.272" cy="108.116" r="35.746"/><circle cx="329.508" cy="197.977" r="35.746"/></g><path d="M252.391 308.233c14.299-7.934 32.319-2.775 40.244 11.526 9.886 17.817 11.1 26.643 11.1 26.643V207.306c0-7.153 2.9-13.635 7.595-18.332 4.697-4.697 11.178-7.596 18.332-7.596 14.312 0 25.917 11.599 25.927 25.909v91.802c0-14.32 11.609-25.929 25.929-25.929 14.32 0 25.929 11.609 25.929 25.929v6.611c0-14.32 11.609-25.929 25.929-25.929 14.32 0 25.929 11.609 25.929 25.929v25.929c0-14.32 11.609-25.929 25.929-25.929 14.32 0 25.929 11.609 25.929 25.929v59.803c0 55.759-35.767 120.564-99.086 120.564h-77.23c-85.792 0-86.361-118.792-86.361-118.792s.019-30.948-7.621-44.728c-7.932-14.29-2.773-32.309 11.526-40.243z" fill="#ffe2c5"/><g fill="#e5c4a5"><path d="M316.16 394.148c-6.775.311-12.424-5.139-12.424-11.921v-174.92c0-7.158 2.905-13.636 7.596-18.327 4.702-4.702 11.18-7.596 18.338-7.596a25.69 25.69 0 0 1 12.016 2.957 25.642 25.642 0 0 0-6.322 4.639c-4.692 4.692-7.596 11.17-7.596 18.328V382.22c0 6.337-4.953 11.603-11.284 11.913l-.324.015zM368.014 351.348c-6.775.311-12.423-5.139-12.423-11.921V299.09c0-7.158 2.905-13.636 7.596-18.328 4.702-4.702 11.18-7.596 18.338-7.596a25.69 25.69 0 0 1 12.016 2.957 25.642 25.642 0 0 0-6.322 4.639c-4.692 4.692-7.596 11.17-7.596 18.328v40.33c0 6.337-4.953 11.603-11.284 11.913l-.325.015zM419.872 342.285c-6.775.311-12.424-5.139-12.424-11.921V305.7c0-7.158 2.905-13.636 7.596-18.328 4.702-4.702 11.18-7.596 18.338-7.596a25.69 25.69 0 0 1 12.016 2.957 25.642 25.642 0 0 0-6.322 4.639c-4.692 4.692-7.596 11.17-7.596 18.328v24.655c0 6.337-4.953 11.603-11.284 11.913l-.324.017zM471.729 352.539c-6.775.311-12.424-5.139-12.424-11.921v-8.989c0-7.158 2.905-13.636 7.596-18.328 4.702-4.702 11.18-7.596 18.338-7.596a25.69 25.69 0 0 1 12.016 2.957 25.642 25.642 0 0 0-6.322 4.639c-4.692 4.692-7.596 11.17-7.596 18.328v8.981c0 6.337-4.953 11.603-11.284 11.913l-.324.016z"/><path d="M358.886 511.999h-24.033c-85.797 0-86.361-118.794-86.361-118.794 0-.167-.01-30.992-7.628-44.732-7.931-14.284-2.769-32.308 11.525-40.239 8.443-4.681 18.192-4.807 26.384-1.17-.794.355-1.578.742-2.351 1.17-14.294 7.931-19.456 25.955-11.525 40.239 7.617 13.74 7.628 44.565 7.628 44.732.001-.001.565 118.794 86.361 118.794z"/></g></svg>