<svg xmlns="http://www.w3.org/2000/svg" viewBox="0 0 512 512"><path d="M469.149 104.457H.037s.401 279.419 0 294.88c-.003.133-.003.266.001.398.403 14.877 6.498 28.798 17.161 39.2 10.688 10.424 24.796 16.166 39.729 16.166H304.71a7.52 7.52 0 005.314-2.2l164.44-164.44a7.515 7.515 0 002.2-5.314V111.971a7.514 7.514 0 00-7.515-7.514z" fill="#e0e0e2"/><g fill="#c6c5ca"><path d="M135.96 300.952h30.708l24.623-77.269 119.227-119.226h-28.055L163.236 223.683zM469.149 104.457H444.1v214.367l30.363-30.363a7.515 7.515 0 002.2-5.314V111.971a7.513 7.513 0 00-7.514-7.514z"/></g><path d="M342.406 307.108H134.292a7.515 7.515 0 110-15.03h208.114a7.515 7.515 0 110 15.03z" fill="#3c5156"/><path d="M57.108 339.768c3.241 0 6.416.281 9.512.795V30.112a7.515 7.515 0 00-7.515-7.515C26.515 22.597 0 49.111 0 81.702v307.793c3.871-28.089 27.956-49.727 57.108-49.727z" fill="#919191"/><path d="M407.952 97.286l-45.131-45.132a7.517 7.517 0 00-10.628 0L185.977 218.369c-.1.1-.189.207-.283.313l56.57 54.917 165.687-165.685a7.514 7.514 0 00.001-10.628z" fill="#ffd039"/><path d="M221.619 253.558l20.645 20.042 165.687-165.685a7.515 7.515 0 000-10.628l-15.039-15.039-171.293 171.31z" fill="#ffa304"/><path d="M185.714 218.701a7.514 7.514 0 00-1.535 2.553l-24.598 69.683a7.516 7.516 0 007.086 10.015c.839 0 1.683-.14 2.501-.429l69.682-24.598a7.5 7.5 0 003.348-2.391l-56.484-54.833z" fill="#ffc89f"/><path d="M166.668 300.952c.839 0 1.683-.14 2.501-.429l69.682-24.598a7.5 7.5 0 003.348-2.391l-20.603-20.001-55.869 19.995-6.145 17.407a7.516 7.516 0 007.086 10.017z" fill="#f7b081"/><path d="M166.668 300.952c.839 0 1.683-.14 2.501-.429l43.944-15.512-38.09-37.817-15.44 43.741a7.516 7.516 0 007.085 10.017z" fill="#3c5156"/><path d="M192.056 264.106l-26.329 9.423-6.145 17.407a7.516 7.516 0 007.086 10.015c.839 0 1.683-.14 2.501-.429l43.944-15.512-21.057-20.904z" fill="#304144"/><path d="M432.369 72.868l-45.132-45.131a7.517 7.517 0 00-10.628 0l-29.71 29.71 55.737 55.783 29.733-29.733a7.515 7.515 0 000-10.629z" fill="#ff6137"/><path d="M382.29 92.868l7.061 7.066 13.29 13.29 29.728-29.728a7.515 7.515 0 000-10.628L417.33 57.829l-35.04 35.039z" fill="#e04f32"/><path d="M452.574 30.885L429.219 7.531a22.767 22.767 0 00-16.203-6.71 22.768 22.768 0 00-16.203 6.71l-14.88 14.88-5.326 5.326-5.415 5.415 55.863 55.657 7.978-7.979 17.54-17.54c4.327-4.327 6.71-10.083 6.71-16.203s-2.382-11.874-6.709-16.202z" fill="#546f7a"/><g fill="#475d63"><path d="M371.285 33.061l-.092.092 16.667 16.604zM452.574 30.885l-18.43-18.43a23.145 23.145 0 014.668 13.979c0 6.188-2.383 12.006-6.71 16.383l-17.54 17.735-7.874 7.964 20.37 20.295 7.978-7.979 17.54-17.54c4.327-4.327 6.71-10.083 6.71-16.203s-2.385-11.876-6.712-16.204z"/></g><path d="M507.361 240.868a7.514 7.514 0 00-8.19 1.628L243.317 498.35a7.516 7.516 0 005.314 12.829h255.855a7.515 7.515 0 007.515-7.515V247.811a7.519 7.519 0 00-4.64-6.943zM368.032 450.391l82.126-82.126v82.126h-82.126z" fill="#ffca10"/><path d="M507.361 240.868a7.514 7.514 0 00-8.19 1.628l-19.736 19.736V511.18h25.049a7.515 7.515 0 007.515-7.515V247.811a7.514 7.514 0 00-4.638-6.943z" fill="#ffa304"/><g fill="#c96e14"><path d="M512 332.253h-28.894a7.514 7.514 0 00-7.515 7.515 7.514 7.514 0 007.515 7.515H512v-15.03zM512 369.929h-28.894a7.514 7.514 0 00-7.515 7.515 7.514 7.514 0 007.515 7.515H512v-15.03zM512 407.602h-28.894c-4.151 0-7.515 3.364-7.515 7.515s3.364 7.515 7.515 7.515H512v-15.03zM512 445.278h-28.894a7.515 7.515 0 100 15.03H512v-15.03z"/></g></svg>