<svg height="512pt" viewBox="0 -6 512.001 512" width="512pt" xmlns="http://www.w3.org/2000/svg"><path d="M504.496 19.098v343.468c0 6.41-5.195 11.602-11.601 11.602H149.434c-6.407 0-11.602-5.191-11.602-11.602V19.098c0-6.407 5.195-11.602 11.602-11.602h343.46c6.407 0 11.602 5.195 11.602 11.602zm0 0" fill="#abffdb"/><path d="M456.164 78.512v295.66h-306.73c-6.407 0-11.602-5.195-11.602-11.602V50.078H427.73c15.68 0 28.434 12.758 28.434 28.434zm0 0" fill="#92e0c0"/><path d="M439.332 78.512v343.472c0 6.407-5.191 11.602-11.602 11.602H84.262c-6.399 0-11.602-5.195-11.602-11.602V78.512c0-6.407 5.203-11.602 11.602-11.602H427.73c6.41 0 11.602 5.195 11.602 11.602zm0 0" fill="#ffc850"/><path d="M391.004 137.93v295.656H84.262c-6.399 0-11.602-5.195-11.602-11.602V109.496h289.91c15.676 0 28.434 12.754 28.434 28.434zm0 0" fill="#f9b428"/><path d="M362.566 493H19.102C12.695 493 7.5 487.805 7.5 481.398V137.934c0-6.407 5.195-11.602 11.602-11.602h343.464c6.41 0 11.602 5.195 11.602 11.602v343.464c0 6.407-5.191 11.602-11.602 11.602zm0 0" fill="#fff"/><path d="M140.176 267.258H91.848c-5.301 0-9.602-4.297-9.602-9.598v-48.332c0-5.3 4.3-9.598 9.602-9.598h48.328c5.304 0 9.601 4.297 9.601 9.598v48.332c0 5.3-4.297 9.598-9.601 9.598zm0 0" fill="#abffdb"/><path d="M110.805 355.297L80.16 414.035c-2.043 3.91.797 8.59 5.207 8.59h61.285c4.414 0 7.25-4.68 5.211-8.59l-30.644-58.738c-2.196-4.207-8.219-4.207-10.414 0zm0 0" fill="#ffc850"/><path d="M311.48 319.684c0 19.722-15.988 35.71-35.71 35.71-19.723 0-35.711-15.988-35.711-35.71s15.988-35.711 35.71-35.711c19.723 0 35.711 15.988 35.711 35.71zm0 0" fill="#48c397"/><path d="M492.898 0h-33.921a7.5 7.5 0 1 0 0 15h33.921A4.106 4.106 0 0 1 497 19.102V362.57a4.105 4.105 0 0 1-4.102 4.098h-46.062V78.516c0-10.532-8.57-19.098-19.102-19.098H145.332V19.102A4.106 4.106 0 0 1 149.434 15h278.925c4.141 0 7.5-3.36 7.5-7.5S432.5 0 428.36 0H149.434c-10.536 0-19.102 8.57-19.102 19.102v40.316H84.266c-10.532 0-19.102 8.566-19.102 19.098v40.316H19.102C8.57 118.832 0 127.402 0 137.934v343.468C0 491.934 8.57 500.5 19.102 500.5h271.921c4.145 0 7.5-3.355 7.5-7.5a7.5 7.5 0 0 0-7.5-7.5H19.102A4.105 4.105 0 0 1 15 481.402V137.934a4.106 4.106 0 0 1 4.102-4.102H362.57a4.109 4.109 0 0 1 4.102 4.102v140.671c0 4.145 3.355 7.5 7.5 7.5a7.5 7.5 0 0 0 7.5-7.5V137.934c0-10.532-8.57-19.102-19.102-19.102H80.164V78.516a4.108 4.108 0 0 1 4.102-4.098h343.468a4.105 4.105 0 0 1 4.102 4.098v343.468a4.106 4.106 0 0 1-4.102 4.102h-46.062V309.223a7.5 7.5 0 1 0-15 0v172.18a4.108 4.108 0 0 1-4.102 4.097h-40.925a7.5 7.5 0 0 0-7.5 7.5c0 4.145 3.355 7.5 7.5 7.5h40.925c10.532 0 19.102-8.566 19.102-19.098v-40.316h46.062c10.532 0 19.102-8.57 19.102-19.102v-40.316h46.062c10.532 0 19.102-8.566 19.102-19.098V19.102C512 8.57 503.43 0 492.898 0zm0 0" fill="#474d54"/><g fill="#abb0b7"><path d="M197.86 419.887h77.91c4.144 0 7.5-3.356 7.5-7.5v-25.004a7.5 7.5 0 1 0-15 0v17.504h-70.41a7.5 7.5 0 1 0 0 15zm0 0M108.512 292.023v32.043c0 4.141 3.355 7.5 7.5 7.5s7.5-3.359 7.5-7.5v-32.043a7.5 7.5 0 1 0-15 0zm0 0M167.445 227.344c0 4.14 3.36 7.5 7.5 7.5h94.836l-5.34 5.336a7.506 7.506 0 0 0 .004 10.61 7.464 7.464 0 0 0 5.301 2.194 7.48 7.48 0 0 0 5.305-2.195l18.265-18.27a7.497 7.497 0 0 0 0-10.605l-18.265-18.266a7.497 7.497 0 0 0-10.606 0 7.497 7.497 0 0 0 0 10.606l5.59 5.59H174.95a7.503 7.503 0 0 0-7.504 7.5zm0 0"/></g></svg>