<svg xmlns="http://www.w3.org/2000/svg" viewBox="0 0 512 512"><path fill="#f0c419" d="M335.448 92.062V35.309H158.897v56.753h44.137v75.661h70.621V92.062z"/><path fill="#4482c3" d="M273.655 167.725h176.552V88.277H273.655z"/><path fill="#e64c3c" d="M61.793 167.725h141.241V88.277H61.793z"/><path fill="#805333" d="M370.759 158.898h-17.656v317.793H476.69V264.829z"/><path fill="#a57656" d="M35.31 247.174v229.517h317.793V158.898z"/><path fill="#f9ebb0" d="M105.931 423.725h176.552V317.794H105.931z"/><g fill="#c9b881"><path d="M167.724 361.932h-17.655c-4.882 0-8.828-3.955-8.828-8.828s3.946-8.828 8.828-8.828h17.655c4.882 0 8.828 3.955 8.828 8.828s-3.946 8.828-8.828 8.828M238.345 397.243H220.69a8.826 8.826 0 01-8.828-8.828 8.826 8.826 0 018.828-8.828h17.655a8.826 8.826 0 018.828 8.828 8.827 8.827 0 01-8.828 8.828M238.345 361.932h-35.31c-4.882 0-8.828-3.955-8.828-8.828s3.946-8.828 8.828-8.828h35.31c4.882 0 8.828 3.955 8.828 8.828s-3.947 8.828-8.828 8.828M194.207 397.243h-44.138a8.826 8.826 0 01-8.828-8.828 8.826 8.826 0 018.828-8.828h44.138a8.826 8.826 0 018.828 8.828 8.826 8.826 0 01-8.828 8.828"/></g><path fill="#805333" d="M317.793 247.174H0l35.31-88.276h317.793z"/><path fill="#a57656" d="M512 264.829H406.069l-35.31-105.931H476.69z"/><path fill="#603e26" d="M450.207 476.691h26.483V264.829h-26.483z"/><path fill="#b79178" d="M35.31 476.691h26.483V247.174H35.31z"/><path fill="#ec7063" d="M61.793 158.898h26.483V88.277H61.793z"/><path fill="#f7dc75" d="M158.897 88.277h26.482V35.312h-26.482z"/><path fill="#336292" d="M423.724 158.898h26.483V88.277h-26.483z"/></svg>