<svg xmlns="http://www.w3.org/2000/svg" viewBox="0 0 512 512"><path fill="#e3e3e3" d="M331.302 64.979h52.04v41.076h-52.04z"/><path d="M369.862 447.021h106.292c19.796 0 35.845-16.049 35.845-35.845V155.26H0v255.916c0 19.796 16.049 35.845 35.845 35.845h334.017z" fill="#65cdef"/><path d="M477.434 155.26v221.352c0 19.796-16.049 35.845-35.845 35.845H1.281c-.419 0-.833-.017-1.249-.032.659 19.217 16.436 34.596 35.814 34.596H476.155c19.796 0 35.845-16.049 35.845-35.845V155.26h-34.566z" opacity=".1"/><path d="M.065 349.992V121.364c0-19.796 16.049-35.845 35.845-35.845s35.845 16.048 35.845 35.845v289.812c0-19.796-16.049-35.845-35.845-35.845S.065 391.379.065 411.176v-61.184z" fill="#3a9cb4"/><path d="M35.911 85.519c-4.246 0-8.317.743-12.096 2.098 13.844 4.963 23.749 18.197 23.749 33.747v255.914c14.074 4.837 24.193 18.182 24.193 33.898V121.364c-.001-19.798-16.05-35.845-35.846-35.845z" fill="#342e30" opacity=".1"/><path d="M440.289 349.992V121.364c0-19.796 16.049-35.845 35.845-35.845s35.845 16.049 35.845 35.845v289.812c0-19.796-16.049-35.845-35.845-35.845s-35.845 16.049-35.845 35.845v-61.184z" fill="#3a9cb4"/><path d="M331.38 311.988h24.55v-36.622h-16.607c-15.519 0-23.291-18.763-12.317-29.738l10.58-10.58-25.896-25.896-14.55 14.551c-10.974 10.974-29.738 3.202-29.738-12.317v-24.55H230.78v24.55c0 15.519-18.763 23.291-29.738 12.317l-14.551-14.551-25.896 25.896 10.58 10.58c10.974 10.974 3.202 29.738-12.317 29.738h-16.607v36.622h24.55c15.519 0 23.291 18.763 12.317 29.738l-18.522 18.522 25.896 25.896 14.551-14.551c10.974-10.974 29.738-3.202 29.738 12.317v16.607h36.622V383.91c0-15.519 18.763-23.291 29.738-12.317l14.551 14.551 25.896-25.896-18.522-18.522c-10.977-10.974-3.206-29.738 12.314-29.738zm-82.29 28.207c-25.691 0-46.518-20.826-46.518-46.518 0-25.691 20.826-46.518 46.518-46.518 25.691 0 46.518 20.826 46.518 46.518-.001 25.691-20.827 46.518-46.518 46.518z" fill="#e3e3e3"/><g fill="#fff"><path d="M408.102 224.838a7.9 7.9 0 0 1-7.899-7.899v-22.202h-35.7a7.9 7.9 0 0 1 0-15.798h43.599a7.9 7.9 0 0 1 7.899 7.899v30.101a7.9 7.9 0 0 1-7.899 7.899zM408.102 262.346a7.9 7.9 0 0 1-7.899-7.899V243.73a7.9 7.9 0 0 1 15.798 0v10.717a7.9 7.9 0 0 1-7.899 7.899zM408.102 306.935a7.9 7.9 0 0 1-7.899-7.899V288.32a7.9 7.9 0 0 1 15.798 0v10.717a7.899 7.899 0 0 1-7.899 7.898zM408.102 351.524a7.9 7.9 0 0 1-7.899-7.899v-10.717a7.9 7.9 0 0 1 15.798 0v10.717a7.9 7.9 0 0 1-7.899 7.899zM408.102 396.113a7.9 7.9 0 0 1-7.899-7.899v-10.717a7.9 7.9 0 0 1 15.798 0v10.717a7.9 7.9 0 0 1-7.899 7.899z"/></g><path fill="#ffc433" d="M347.796 106.058H168.245l-59.113-17.86 59.113-23.219h179.551z"/><path fill="#f9c5b5" d="M168.245 106.058l-59.113-17.86 59.113-23.219z"/><path d="M388.679 106.058h-16.3v-41.08h16.3c10.726 0 19.421 8.695 19.421 19.421v2.237c.002 10.727-8.694 19.422-19.421 19.422z" fill="#f23466"/><path d="M388.679 94.624H168.245l-42.659-12.889-16.454 6.464 59.113 17.861H388.681c10.726 0 19.421-8.695 19.421-19.421V84.4c0-1.587-.212-3.122-.571-4.599-2.069 8.502-9.713 14.823-18.852 14.823z" opacity=".1"/><path d="M476.135 85.519c4.246 0 8.317.743 12.096 2.098-13.844 4.963-23.749 18.197-23.749 33.747v255.914c-14.074 4.837-24.193 18.182-24.193 33.898V121.364c0-19.798 16.049-35.845 35.846-35.845z" fill="#342e30" opacity=".1"/><path d="M140.09 76.037l-30.958 12.161 30.958 9.354z"/></svg>